@startuml
class WorldObjectType<extends BrokerSchema>
class WorldLoop<extends ServiceSchema>
class Redis<extends ServiceSchema>
class Mongo<extends ServiceSchema>
class PlayMode<extends ServiceSchema>
class StateService<extends ServiceSchema>

WorldObjectType --> WorldLoop
WorldObjectType --> Redis
WorldObjectType --> Mongo
WorldObjectType --> StateService
WorldLoop --> PlayMode
@enduml
